<?xml version="1.0" standalone="no"?><!DOCTYPE svg PUBLIC "-//W3C//DTD SVG 1.1//EN" "http://www.w3.org/Graphics/SVG/1.1/DTD/svg11.dtd"><svg class="icon" height="512" viewBox="0 0 1024 1024" version="1.1" xmlns="http://www.w3.org/2000/svg"><path d="M1023.97952 511.927956C1024.162374 237.574586 807.736988 11.933384 533.420189 0.450185 259.066819-10.959872 24.502367 195.810849 1.791964 469.213381c-22.746974 273.402532 174.405655 516.049108 446.857349 550.023286 17.078516 3.291363 34.449597 4.900473 51.820678 4.71762 5.77817 0 11.51977 0 16.639667-0.841126 280.606959-2.779373 506.687009-230.761099 506.869862-511.185205z m-72.95854 7.240998a567.101801 567.101801 0 0 0-10.239796-74.677364c0.658273-8.703826 0.658273-16.895662 0.658273-24.575508 6.436443 30.243967 9.654664 61.073064 9.581523 92.011874v7.240998z m-878.062439-7.240998c-0.036571-30.353679 3.181651-60.670787 9.618093-90.329622a46.225361 46.225361 0 0 0 74.238515-10.49579c20.99158 2.925656 38.691798 17.115086 46.079079 36.936404 0 76.761893 2.559949 158.607114 72.336839 159.887088 26.330902 10.934638 46.810492 32.54792 56.318873 59.390812 5.741599 15.7254 30.061113 0 56.318874 0 13.421446 0 0 22.125272 0 69.959744s103.019654 120.975866 103.019654 120.975866c-0.804555 25.855483 0.292566 51.710966 3.181651 77.383595a175.868483 175.868483 0 0 0-58.22055 7.8627A438.592371 438.592371 0 0 1 72.995112 512.001097z m547.207341 424.732077c-2.559949-11.117492-12.178042-17.188228-30.719385-12.434038a210.939781 210.939781 0 0 1 51.820678-122.365552 40.849469 40.849469 0 0 0-28.159437-75.116212c-26.22119 4.022777-9.581523-32.51135-32.621062-34.486168a699.122018 699.122018 0 0 1-87.696532-64.510709 154.474625 154.474625 0 0 0-63.340447-31.96279c-24.319514-0.987409-60.158797 20.589302-60.158797 4.022777a998.818881 998.818881 0 0 0-6.399872-107.152143c-0.658273-12.324325-8.338119-4.169059 24.941215-3.364504 17.919642 0.51199 8.959821-36.058707 26.879463-37.448394a353.419217 353.419217 0 0 0 69.77689 9.252387c10.239795-6.399872 72.300268 164.16586 72.300268 28.196007a143.247421 143.247421 0 0 1 0-59.463953 724.831218 724.831218 0 0 0 61.438771-116.770236 90.76847 90.76847 0 0 0-59.500524 1.279974c-1.901676 6.948432-5.156468 13.494587-9.618093 19.199616-47.359053 10.788356-88.318234-12.799744-74.238515-34.669021 15.359693-22.56412 69.118618-9.874088 73.616813-55.112041 2.559949-25.599488 5.119898-55.953167 6.399872-78.261291 63.340447 9.837518 56.318874-81.80865-37.77753-91.646168 185.047728 2.047959 348.884451 119.878745 409.591808 294.540395a19.199616 19.199616 0 0 0-10.239795-4.790761c-28.781139-70.727728-97.278054-19.199616-74.238515 42.897428-124.779219 95.924939-92.779859 163.068739-51.820678 201.4314a369.583465 369.583465 0 0 1 55.660601 72.263697c-14.70142 42.641433 53.758925 25.599488 87.696532-46.70078a438.811795 438.811795 0 0 1-313.593729 303.17108z" fill="#1E9EE1" /></svg>